<svg width="691" height="200" viewBox="0 0 691 200" fill="none" xmlns="http://www.w3.org/2000/svg">
<path fill-rule="evenodd" clip-rule="evenodd" d="M403.962 0C395.06 21.8249 389.691 36.101 379.78 57.2772C385.857 63.7185 393.316 71.2197 405.429 79.6916C392.406 74.3328 383.523 68.9527 376.884 63.3697C364.2 89.8373 344.328 127.539 304 200C335.696 181.701 360.267 170.42 383.165 166.115C382.182 161.886 381.623 157.312 381.661 152.539L381.698 151.523C382.201 131.216 392.765 115.6 405.278 116.66C417.792 117.721 427.519 135.052 427.016 155.359C426.921 159.18 426.49 162.856 425.737 166.266C448.387 170.696 472.695 181.949 503.962 200C497.797 188.649 492.293 178.417 487.038 168.672C478.76 162.257 470.126 153.906 452.514 144.866C464.62 148.012 473.287 151.641 480.043 155.698C426.612 56.2174 422.285 42.9986 403.962 0Z" fill="#458588"/>
<path d="M8.16 134V126.128H26.88V89.072H10.56V81.2H35.52V126.128H53.28V134H8.16ZM30.24 71.696C28.128 71.696 26.464 71.152 25.248 70.064C24.032 68.976 23.424 67.504 23.424 65.648C23.424 63.728 24.032 62.224 25.248 61.136C26.464 59.984 28.128 59.408 30.24 59.408C32.352 59.408 34.016 59.984 35.232 61.136C36.448 62.224 37.056 63.728 37.056 65.648C37.056 67.504 36.448 68.976 35.232 70.064C34.016 71.152 32.352 71.696 30.24 71.696ZM143.829 134.96C137.749 134.96 132.885 133.168 129.237 129.584C125.589 125.936 123.765 121.008 123.765 114.8V81.2H132.405V114.8C132.405 118.768 133.429 121.872 135.477 124.112C137.525 126.288 140.309 127.376 143.829 127.376C147.413 127.376 150.229 126.288 152.277 124.112C154.389 121.872 155.445 118.768 155.445 114.8V81.2H164.085V114.8C164.085 121.008 162.229 125.936 158.517 129.584C154.805 133.168 149.909 134.96 143.829 134.96ZM199.856 134.768C196.272 134.768 193.136 134.224 190.448 133.136C187.824 131.984 185.712 130.384 184.112 128.336C182.576 126.288 181.648 123.856 181.328 121.04H189.968C190.352 122.896 191.376 124.368 193.04 125.456C194.768 126.544 197.04 127.088 199.856 127.088H203.888C207.28 127.088 209.808 126.416 211.472 125.072C213.136 123.664 213.968 121.808 213.968 119.504C213.968 117.264 213.2 115.504 211.664 114.224C210.192 112.88 207.984 111.984 205.04 111.536L197.936 110.384C192.752 109.488 188.88 107.888 186.32 105.584C183.824 103.216 182.576 99.792 182.576 95.312C182.576 90.576 184.08 86.928 187.088 84.368C190.096 81.744 194.608 80.432 200.624 80.432H204.272C209.328 80.432 213.392 81.616 216.464 83.984C219.536 86.352 221.392 89.552 222.031 93.584H213.392C213.008 91.92 212.048 90.608 210.512 89.648C208.976 88.624 206.896 88.112 204.272 88.112H200.624C197.36 88.112 194.96 88.72 193.424 89.936C191.952 91.152 191.216 92.976 191.216 95.408C191.216 97.584 191.856 99.184 193.136 100.208C194.416 101.232 196.432 101.968 199.184 102.416L206.288 103.568C211.984 104.464 216.112 106.128 218.672 108.56C221.296 110.992 222.608 114.512 222.608 119.12C222.608 123.984 221.04 127.824 217.904 130.64C214.832 133.392 210.16 134.768 203.888 134.768H199.856ZM259.05 134.96C254.89 134.96 251.242 134.128 248.106 132.464C245.034 130.8 242.634 128.464 240.906 125.456C239.242 122.384 238.41 118.832 238.41 114.8V100.4C238.41 96.304 239.242 92.752 240.906 89.744C242.634 86.736 245.034 84.4 248.106 82.736C251.242 81.072 254.89 80.24 259.05 80.24C263.21 80.24 266.826 81.072 269.898 82.736C273.034 84.4 275.434 86.736 277.098 89.744C278.826 92.752 279.69 96.304 279.69 100.4V109.712H246.858V114.8C246.858 118.96 247.914 122.16 250.026 124.4C252.138 126.576 255.146 127.664 259.05 127.664C262.378 127.664 265.066 127.088 267.114 125.936C269.162 124.72 270.41 122.928 270.858 120.56H279.498C278.922 124.976 276.746 128.496 272.97 131.12C269.258 133.68 264.618 134.96 259.05 134.96ZM271.242 103.952V100.4C271.242 96.24 270.186 93.04 268.074 90.8C266.026 88.56 263.018 87.44 259.05 87.44C255.146 87.44 252.138 88.56 250.026 90.8C247.914 93.04 246.858 96.24 246.858 100.4V103.184H271.914L271.242 103.952ZM549.935 134.96C545.583 134.96 542.095 133.808 539.471 131.504C536.847 129.136 535.535 125.936 535.535 121.904L537.263 123.92H535.535V134H526.895V63.92H535.535V79.28L535.343 91.28H537.263L535.535 93.296C535.535 89.328 536.847 86.16 539.471 83.792C542.159 81.424 545.647 80.24 549.935 80.24C555.247 80.24 559.503 82 562.703 85.52C565.903 89.04 567.503 93.84 567.503 99.92V115.376C567.503 121.392 565.903 126.16 562.703 129.68C559.503 133.2 555.247 134.96 549.935 134.96ZM547.055 127.472C550.703 127.472 553.583 126.384 555.695 124.208C557.807 122.032 558.863 118.896 558.863 114.8V100.4C558.863 96.304 557.807 93.168 555.695 90.992C553.583 88.816 550.703 87.728 547.055 87.728C543.535 87.728 540.719 88.848 538.607 91.088C536.559 93.328 535.535 96.432 535.535 100.4V114.8C535.535 118.768 536.559 121.872 538.607 124.112C540.719 126.352 543.535 127.472 547.055 127.472ZM610.185 134C605.641 134 602.089 132.784 599.529 130.352C597.033 127.92 595.785 124.496 595.785 120.08V89.072H580.905V81.2H595.785V66.32H604.425V81.2H625.545V89.072H604.425V120.08C604.425 124.112 606.345 126.128 610.185 126.128H624.585V134H610.185ZM644.996 134L636.548 81.2H644.228L649.508 118.64C649.7 120.048 649.892 121.584 650.084 123.248C650.34 124.848 650.532 126.192 650.66 127.28C650.788 126.192 650.98 124.848 651.236 123.248C651.556 121.584 651.812 120.048 652.004 118.64L657.859 81.2H666.116L671.972 118.64C672.164 120.048 672.388 121.584 672.644 123.248C672.964 124.848 673.188 126.192 673.316 127.28C673.444 126.192 673.636 124.848 673.892 123.248C674.212 121.584 674.468 120.048 674.66 118.64L680.132 81.2H687.427L678.596 134H669.092L663.428 97.52C663.172 95.728 662.884 93.936 662.564 92.144C662.244 90.352 662.02 88.944 661.892 87.92C661.764 88.944 661.572 90.352 661.316 92.144C661.06 93.936 660.772 95.728 660.452 97.52L654.5 134H644.996Z" fill="#3C3836"/>
</svg>
